<svg xmlns="http://www.w3.org/2000/svg" width="157.465" height="26.864" viewBox="0 0 157.465 26.864">
    <defs>
        <style>
            .prefix__cls-1{fill:#fff;stroke:transparent;stroke-miterlimit:10}
        </style>
    </defs>
    <g id="prefix__그룹_1769" data-name="그룹 1769" transform="translate(.5 .5)">
        <g id="prefix__그룹_1219" data-name="그룹 1219" transform="translate(92.75 .681)">
            <path id="prefix__패스_492" d="M537.664 272.477l3.582 9.538h4.008l-9.592-24.5h-3.487l-9.592 24.5h1.892l3.7-9.538zm-4.831-12.028l4.4 10.981H528.6z" class="prefix__cls-1" data-name="패스 492" transform="translate(-503.759 -257.519)"/>
            <path id="prefix__패스_493" d="M610.863 257.519v24.5h9.741c2.764-.011 4.94-.671 6.256-1.98a6.06 6.06 0 0 0 1.625-4.475c0-3.437-1.422-5.227-4.763-5.985l-.783-.178.725-.345a5.611 5.611 0 0 0 3.451-5.219 5.786 5.786 0 0 0-1.65-4.244c-1.4-1.378-3.609-2.1-6.442-2.062h-.092zm3.836 23.454V269.91h4.368c3.4.147 5.507 2.27 5.507 5.59a5.333 5.333 0 0 1-5.338 5.473zm8.846-17.322a5.226 5.226 0 0 1-4.956 5.214H614.7v-10.292h3.746a5.04 5.04 0 0 1 5.099 5.078z" class="prefix__cls-1" data-name="패스 493" transform="translate(-564.77 -257.519)"/>
            <path id="prefix__패스_494" d="M461.645 257.519v24.5h15.831v-1.045h-11.994v-23.455z" class="prefix__cls-1" data-name="패스 494" transform="translate(-461.645 -257.519)"/>
        </g>
        <g id="prefix__그룹_1220" data-name="그룹 1220">
            <path id="prefix__패스_495" d="M161.384 281.986h4.391v-24.493l-4.389-.005z" class="prefix__cls-1" data-name="패스 495" transform="translate(-161.384 -256.815)"/>
            <path id="prefix__패스_496" d="M208.361 255.315c-6.73 0-11.557 5.708-11.558 12.931s4.82 12.931 11.557 12.933c6.77 0 11.6-5.715 11.6-12.934s-4.829-12.929-11.599-12.93zm0 24.27c-5.617 0-6.844-6.584-6.841-11.341s1.228-11.344 6.841-11.348 6.882 6.588 6.878 11.344-1.253 11.341-6.876 11.345z" class="prefix__cls-1" data-name="패스 496" transform="translate(-185.862 -255.315)"/>
            <path id="prefix__패스_497" d="M302.72 257.515l-10.809-.008v24.5h4.392l.007-9.295h4.462c5.947 0 9-2.337 9-7.627a7.19 7.19 0 0 0-7.052-7.57zm-2.99 13.609h-3.417v-12.4h3.312c4.573 0 5.763 3.15 5.763 5.684-.008 4.192-1.841 6.719-5.659 6.716z" class="prefix__cls-1" data-name="패스 497" transform="translate(-251.592 -256.83)"/>
            <path id="prefix__패스_498" d="M382.634 280.421h-11.432l-.006-10.287h9.15v-1.584h-9.153l.006-9.453h11.434v-1.588h-15.824v24.5h15.828z" class="prefix__cls-1" data-name="패스 498" transform="translate(-303.353 -256.83)"/>
        </g>
    </g>
</svg>
